<svg width="100" height="100" viewBox="0 0 100 100" fill="none" xmlns="http://www.w3.org/2000/svg">
<circle cx="50" cy="50" r="50" fill="#DB2512"/>
<g clip-path="url(#clip0_8_443)">
<path d="M58.2143 48.2143H52.1429C51.9456 48.2143 51.7857 48.0544 51.7857 47.8571V41.7857C51.7857 40.7996 50.9862 40 50 40C49.0138 40 48.2143 40.7996 48.2143 41.7857V47.8571C48.2143 48.0544 48.0544 48.2143 47.8571 48.2143H41.7857C40.7996 48.2143 40 49.0138 40 50C40 50.9862 40.7996 51.7857 41.7857 51.7857H47.8571C48.0544 51.7857 48.2143 51.9456 48.2143 52.1429V58.2143C48.2143 59.2004 49.0138 60 50 60C50.9862 60 51.7857 59.2004 51.7857 58.2143V52.1429C51.7857 51.9456 51.9456 51.7857 52.1429 51.7857H58.2143C59.2004 51.7857 60 50.9862 60 50C60 49.0138 59.2004 48.2143 58.2143 48.2143Z" fill="white"/>
</g>
<defs>
<clipPath id="clip0_8_443">
<rect width="20" height="20" fill="white" transform="translate(40 40)"/>
</clipPath>
</defs>
</svg>
